REM DIRINDEX 1\2,1\3,1\4,1\6,1\5\7,1\5\8
REM DIRNAME folder01,folder02,folder03,folder04,folder05,folder06,folder07,folder08
TITLE ""
FILE "DB4500_5th_1A_07.mp3" MP3
  TRACK 01 AUDIO
    TITLE "0:"
    INDEX 01 00:00:00
  TRACK 02 AUDIO
    TITLE "2:cjc114_0115"
    INDEX 01 00:00:03
  TRACK 03 AUDIO
    TITLE "0:"
    INDEX 01 00:01:11
  TRACK 04 AUDIO
    TITLE "3:cjc114_0116"
    INDEX 01 00:01:36
  TRACK 05 AUDIO
    TITLE "0:"
    INDEX 01 00:02:53
  TRACK 06 AUDIO
    TITLE "4:cjc114_0117"
    INDEX 01 00:03:08
  TRACK 07 AUDIO
    TITLE "0:"
    INDEX 01 00:06:59
  TRACK 08 AUDIO
    TITLE "2:cjc114_0118"
    INDEX 01 00:07:37
  TRACK 09 AUDIO
    TITLE "0:"
    INDEX 01 00:08:38
  TRACK 10 AUDIO
    TITLE "3:cjc114_0119"
    INDEX 01 00:08:64
  TRACK 11 AUDIO
    TITLE "0:"
    INDEX 01 00:09:44
  TRACK 12 AUDIO
    TITLE "4:cjc114_0120"
    INDEX 01 00:09:73
  TRACK 13 AUDIO
    TITLE "0:"
    INDEX 01 00:12:46
  TRACK 14 AUDIO
    TITLE "2:cjc114_0121"
    INDEX 01 00:13:22
  TRACK 15 AUDIO
    TITLE "0:"
    INDEX 01 00:14:39
  TRACK 16 AUDIO
    TITLE "3:cjc114_0122"
    INDEX 01 00:14:66
  TRACK 17 AUDIO
    TITLE "0:"
    INDEX 01 00:16:14
  TRACK 18 AUDIO
    TITLE "4:cjc114_0123"
    INDEX 01 00:16:42
  TRACK 19 AUDIO
    TITLE "0:"
    INDEX 01 00:20:00
  TRACK 20 AUDIO
    TITLE "2:cjc114_0124"
    INDEX 01 00:20:55
  TRACK 21 AUDIO
    TITLE "0:"
    INDEX 01 00:21:53
  TRACK 22 AUDIO
    TITLE "3:cjc114_0125"
    INDEX 01 00:22:05
  TRACK 23 AUDIO
    TITLE "0:"
    INDEX 01 00:22:70
  TRACK 24 AUDIO
    TITLE "4:cjc114_0126"
    INDEX 01 00:23:18
  TRACK 25 AUDIO
    TITLE "0:"
    INDEX 01 00:26:01
  TRACK 26 AUDIO
    TITLE "4:cjc114_0127"
    INDEX 01 00:26:34
  TRACK 27 AUDIO
    TITLE "0:"
    INDEX 01 00:28:27
  TRACK 28 AUDIO
    TITLE "2:cjc114_0128"
    INDEX 01 00:29:05
  TRACK 29 AUDIO
    TITLE "0:"
    INDEX 01 00:30:10
  TRACK 30 AUDIO
    TITLE "3:cjc114_0129"
    INDEX 01 00:30:36
  TRACK 31 AUDIO
    TITLE "0:"
    INDEX 01 00:31:26
  TRACK 32 AUDIO
    TITLE "4:cjc114_0130"
    INDEX 01 00:31:53
  TRACK 33 AUDIO
    TITLE "0:"
    INDEX 01 00:35:00
  TRACK 34 AUDIO
    TITLE "2:cjc114_0131"
    INDEX 01 00:35:66
  TRACK 35 AUDIO
    TITLE "0:"
    INDEX 01 00:36:58
  TRACK 36 AUDIO
    TITLE "3:cjc114_0132"
    INDEX 01 00:37:10
  TRACK 37 AUDIO
    TITLE "0:"
    INDEX 01 00:39:43
  TRACK 38 AUDIO
    TITLE "4:cjc114_0133"
    INDEX 01 00:39:72
  TRACK 39 AUDIO
    TITLE "0:"
    INDEX 01 00:42:47
  TRACK 40 AUDIO
    TITLE "2:cjc114_0134"
    INDEX 01 00:43:25
  TRACK 41 AUDIO
    TITLE "0:"
    INDEX 01 00:44:28
  TRACK 42 AUDIO
    TITLE "3:cjc114_0135"
    INDEX 01 00:44:60
  TRACK 43 AUDIO
    TITLE "0:"
    INDEX 01 00:47:19
  TRACK 44 AUDIO
    TITLE "4:cjc114_0136"
    INDEX 01 00:47:46
  TRACK 45 AUDIO
    TITLE "0:"
    INDEX 01 00:50:17
  TRACK 46 AUDIO
    TITLE "2:cjc114_0137"
    INDEX 01 00:50:66
  TRACK 47 AUDIO
    TITLE "0:"
    INDEX 01 00:51:67
  TRACK 48 AUDIO
    TITLE "3:cjc114_0138"
    INDEX 01 00:52:22
  TRACK 49 AUDIO
    TITLE "0:"
    INDEX 01 00:54:60
  TRACK 50 AUDIO
    TITLE "4:cjc114_0139"
    INDEX 01 00:55:12
  TRACK 51 AUDIO
    TITLE "0:"
    INDEX 01 00:57:46
  TRACK 52 AUDIO
    TITLE "2:cjc114_0140"
    INDEX 01 00:58:24
  TRACK 53 AUDIO
    TITLE "0:"
    INDEX 01 00:59:32
  TRACK 54 AUDIO
    TITLE "3:cjc114_0141"
    INDEX 01 00:59:59
  TRACK 55 AUDIO
    TITLE "0:"
    INDEX 01 01:02:28
  TRACK 56 AUDIO
    TITLE "4:cjc114_0142"
    INDEX 01 01:02:57
  TRACK 57 AUDIO
    TITLE "0:"
    INDEX 01 01:05:46
  TRACK 58 AUDIO
    TITLE "2:cjc114_0143"
    INDEX 01 01:06:22
  TRACK 59 AUDIO
    TITLE "0:"
    INDEX 01 01:07:14
  TRACK 60 AUDIO
    TITLE "3:cjc114_0144"
    INDEX 01 01:07:41
  TRACK 61 AUDIO
    TITLE "0:"
    INDEX 01 01:10:08
  TRACK 62 AUDIO
    TITLE "4:cjc114_0145"
    INDEX 01 01:10:35
  TRACK 63 AUDIO
    TITLE "0:"
    INDEX 01 01:13:28
  TRACK 64 AUDIO
    TITLE "4:cjc114_0146"
    INDEX 01 01:14:10
  TRACK 65 AUDIO
    TITLE "0:"
    INDEX 01 01:16:48
  TRACK 66 AUDIO
    TITLE "2:cjc114_0147"
    INDEX 01 01:17:41
  TRACK 67 AUDIO
    TITLE "0:"
    INDEX 01 01:18:51
  TRACK 68 AUDIO
    TITLE "3:cjc114_0148"
    INDEX 01 01:19:01
  TRACK 69 AUDIO
    TITLE "0:"
    INDEX 01 01:21:49
  TRACK 70 AUDIO
    TITLE "4:cjc114_0149"
    INDEX 01 01:22:01
  TRACK 71 AUDIO
    TITLE "0:"
    INDEX 01 01:24:49
  TRACK 72 AUDIO
    TITLE "2:cjc114_0150"
    INDEX 01 01:25:27
  TRACK 73 AUDIO
    TITLE "0:"
    INDEX 01 01:26:40
  TRACK 74 AUDIO
    TITLE "3:cjc114_0151"
    INDEX 01 01:26:70
  TRACK 75 AUDIO
    TITLE "0:"
    INDEX 01 01:29:37
  TRACK 76 AUDIO
    TITLE "4:cjc114_0152"
    INDEX 01 01:29:62
  TRACK 77 AUDIO
    TITLE "0:"
    INDEX 01 01:32:23
